<mxfile host="drawio-plugin" modified="2022-04-08T16:06:03.717Z" agent="5.0 (Windows NT 6.2; Win64; x64) AppleWebKit/537.36 (KHTML, like Gecko) Chrome/89.0.4389.114 Safari/537.36" version="15.5.4" etag="9mJjfzXgX86kWXYYmHvr" type="embed"><diagram id="LvUMi53tBqGRx74gqG9v" name="Page-1"><mxGraphModel dx="600" dy="1583" grid="1" gridSize="10" guides="1" tooltips="1" connect="1" arrows="1" fold="1" page="1" pageScale="1" pageWidth="850" pageHeight="1100" math="0" shadow="0"><root><mxCell id="0"/><mxCell id="1" parent="0"/><mxCell id="52" value="&lt;span style=&quot;font-weight: 700&quot;&gt;&amp;lt;&amp;lt;device&amp;gt;&amp;gt;&lt;/span&gt;&lt;br style=&quot;font-weight: 700&quot;&gt;&lt;b&gt;VPS&lt;/b&gt;" style="verticalAlign=top;align=center;shape=cube;size=10;direction=south;fontStyle=0;html=1;boundedLbl=1;spacingLeft=5;" vertex="1" parent="1"><mxGeometry x="810" y="-290" width="310" height="550" as="geometry"/></mxCell><mxCell id="53" value="&lt;span style=&quot;font-weight: 700&quot;&gt;&amp;lt;&amp;lt;service&amp;gt;&amp;gt;&lt;/span&gt;&lt;br style=&quot;font-weight: 700&quot;&gt;&lt;span style=&quot;font-weight: 700&quot;&gt;Docker&lt;/span&gt;" style="verticalAlign=top;align=center;shape=cube;size=10;direction=south;html=1;boundedLbl=1;spacingLeft=5;" vertex="1" parent="52"><mxGeometry width="280" height="490" relative="1" as="geometry"><mxPoint x="10" y="60" as="offset"/></mxGeometry></mxCell><mxCell id="54" value="&lt;span style=&quot;font-weight: 700&quot;&gt;&amp;lt;&amp;lt;container&amp;gt;&amp;gt;&lt;/span&gt;&lt;br style=&quot;font-weight: 700&quot;&gt;&lt;b&gt;Database&lt;/b&gt;" style="verticalAlign=top;align=center;shape=cube;size=10;direction=south;html=1;boundedLbl=1;spacingLeft=5;" vertex="1" parent="52"><mxGeometry x="30" y="390" width="250" height="138.85" as="geometry"/></mxCell><mxCell id="55" value="" style="rounded=0;whiteSpace=wrap;html=1;" vertex="1" parent="52"><mxGeometry x="80" y="445.23809523809524" width="130" height="52.87857142857143" as="geometry"/></mxCell><mxCell id="56" value="&amp;lt;&amp;lt;artifact&amp;gt;&amp;gt;&lt;br&gt;Postgres&amp;nbsp;" style="text;html=1;strokeColor=none;fillColor=none;align=center;verticalAlign=middle;whiteSpace=wrap;rounded=0;fontStyle=1" vertex="1" parent="52"><mxGeometry x="115" y="455.82106227106226" width="60" height="31.73076923076923" as="geometry"/></mxCell><mxCell id="57" value="&lt;span style=&quot;font-weight: 700&quot;&gt;&amp;lt;&amp;lt;container&amp;gt;&amp;gt;&lt;/span&gt;&lt;br style=&quot;font-weight: 700&quot;&gt;&lt;b&gt;Backend&lt;/b&gt;" style="verticalAlign=top;align=center;shape=cube;size=10;direction=south;html=1;boundedLbl=1;spacingLeft=5;" vertex="1" parent="52"><mxGeometry x="30" y="110" width="250" height="140" as="geometry"/></mxCell><mxCell id="58" value="" style="rounded=0;whiteSpace=wrap;html=1;" vertex="1" parent="52"><mxGeometry x="70" y="160" width="150" height="40" as="geometry"/></mxCell><mxCell id="59" value="&amp;lt;&amp;lt;artifact&amp;gt;&amp;gt;&lt;br&gt;Express API" style="text;html=1;strokeColor=none;fillColor=none;align=center;verticalAlign=middle;whiteSpace=wrap;rounded=0;fontStyle=1" vertex="1" parent="52"><mxGeometry x="100" y="160" width="90" height="33.67" as="geometry"/></mxCell><mxCell id="60" value="&lt;span style=&quot;font-weight: 700&quot;&gt;&amp;lt;&amp;lt;container&amp;gt;&amp;gt;&lt;/span&gt;&lt;br style=&quot;font-weight: 700&quot;&gt;&lt;b&gt;DataDog&lt;/b&gt;" style="verticalAlign=top;align=center;shape=cube;size=10;direction=south;html=1;boundedLbl=1;spacingLeft=5;" vertex="1" parent="52"><mxGeometry x="30" y="260" width="250" height="118.85" as="geometry"/></mxCell><mxCell id="61" value="" style="rounded=0;whiteSpace=wrap;html=1;" vertex="1" parent="52"><mxGeometry x="70" y="309.99632653061224" width="150" height="56.12244897959183" as="geometry"/></mxCell><mxCell id="62" value="&amp;lt;&amp;lt;artifact&amp;gt;&amp;gt;&lt;br&gt;Agent" style="text;html=1;strokeColor=none;fillColor=none;align=center;verticalAlign=middle;whiteSpace=wrap;rounded=0;fontStyle=1" vertex="1" parent="52"><mxGeometry x="115" y="321.2208163265306" width="60" height="33.6734693877551" as="geometry"/></mxCell><mxCell id="63" value="" style="rounded=0;whiteSpace=wrap;html=1;" vertex="1" parent="52"><mxGeometry x="70" y="200" width="150" height="40" as="geometry"/></mxCell><mxCell id="64" value="&amp;lt;&amp;lt;artifact&amp;gt;&amp;gt;&lt;br&gt;Socket.IO" style="text;html=1;strokeColor=none;fillColor=none;align=center;verticalAlign=middle;whiteSpace=wrap;rounded=0;fontStyle=1" vertex="1" parent="52"><mxGeometry x="115" y="203.1608163265306" width="60" height="33.6734693877551" as="geometry"/></mxCell><mxCell id="65" value="&lt;span style=&quot;font-weight: 700&quot;&gt;&amp;lt;&amp;lt;device&amp;gt;&amp;gt;&lt;/span&gt;&lt;br style=&quot;font-weight: 700&quot;&gt;&lt;b&gt;Computer&lt;/b&gt;" style="verticalAlign=top;align=center;shape=cube;size=10;direction=south;fontStyle=0;html=1;boundedLbl=1;spacingLeft=5;" vertex="1" parent="1"><mxGeometry x="40" y="30" width="280" height="180" as="geometry"/></mxCell><mxCell id="66" value="Protocol&lt;br&gt;HTTPS" style="text;html=1;align=center;verticalAlign=middle;resizable=0;points=[];autosize=1;strokeColor=none;fillColor=none;" vertex="1" parent="1"><mxGeometry x="340" y="70" width="60" height="30" as="geometry"/></mxCell><mxCell id="67" value="" style="endArrow=none;html=1;rounded=0;exitX=0;exitY=0;exitDx=95;exitDy=0;exitPerimeter=0;entryX=0;entryY=0;entryDx=95;entryDy=280;entryPerimeter=0;" edge="1" parent="1" source="65" target="71"><mxGeometry width="50" height="50" relative="1" as="geometry"><mxPoint x="680" y="140" as="sourcePoint"/><mxPoint x="350" y="70" as="targetPoint"/></mxGeometry></mxCell><mxCell id="68" value="" style="rounded=0;whiteSpace=wrap;html=1;" vertex="1" parent="1"><mxGeometry x="70" y="110" width="210" height="70" as="geometry"/></mxCell><mxCell id="69" value="&amp;lt;&amp;lt;artifact&amp;gt;&amp;gt;&lt;br&gt;Browser" style="text;html=1;strokeColor=none;fillColor=none;align=center;verticalAlign=middle;whiteSpace=wrap;rounded=0;fontStyle=1" vertex="1" parent="1"><mxGeometry x="140" y="120" width="60" height="30" as="geometry"/></mxCell><mxCell id="70" value="&lt;span style=&quot;font-weight: 700&quot;&gt;&amp;lt;&amp;lt;service&amp;gt;&amp;gt;&lt;/span&gt;&lt;br style=&quot;font-weight: 700&quot;&gt;&lt;b&gt;Gitlab&lt;/b&gt;" style="verticalAlign=top;align=center;shape=cube;size=10;direction=south;fontStyle=0;html=1;boundedLbl=1;spacingLeft=5;" vertex="1" parent="1"><mxGeometry x="815" y="330" width="280" height="140" as="geometry"/></mxCell><mxCell id="71" value="&lt;span style=&quot;font-weight: 700&quot;&gt;&amp;lt;&amp;lt;service&amp;gt;&amp;gt;&lt;/span&gt;&lt;br style=&quot;font-weight: 700&quot;&gt;&lt;b&gt;Netlify&lt;/b&gt;" style="verticalAlign=top;align=center;shape=cube;size=10;direction=south;fontStyle=0;html=1;boundedLbl=1;spacingLeft=5;" vertex="1" parent="1"><mxGeometry x="390" y="-140" width="280" height="180" as="geometry"/></mxCell><mxCell id="72" value="" style="rounded=0;whiteSpace=wrap;html=1;" vertex="1" parent="1"><mxGeometry x="425" y="-60" width="210" height="70" as="geometry"/></mxCell><mxCell id="73" value="&amp;lt;&amp;lt;artifact&amp;gt;&amp;gt;&lt;br&gt;Frontend" style="text;html=1;strokeColor=none;fillColor=none;align=center;verticalAlign=middle;whiteSpace=wrap;rounded=0;fontStyle=1" vertex="1" parent="1"><mxGeometry x="500" y="-50" width="60" height="30" as="geometry"/></mxCell><mxCell id="74" value="" style="endArrow=none;html=1;rounded=0;exitX=0;exitY=0;exitDx=85;exitDy=0;exitPerimeter=0;entryX=0;entryY=0;entryDx=215;entryDy=310;entryPerimeter=0;" edge="1" parent="1" source="71" target="52"><mxGeometry width="50" height="50" relative="1" as="geometry"><mxPoint x="810" y="80" as="sourcePoint"/><mxPoint x="860" y="30" as="targetPoint"/></mxGeometry></mxCell><mxCell id="75" value="" style="rounded=0;whiteSpace=wrap;html=1;" vertex="1" parent="1"><mxGeometry x="860" y="390" width="150" height="50" as="geometry"/></mxCell><mxCell id="76" value="&amp;lt;&amp;lt;artifact&amp;gt;&amp;gt;&lt;br&gt;OAuth Provider" style="text;html=1;strokeColor=none;fillColor=none;align=center;verticalAlign=middle;whiteSpace=wrap;rounded=0;fontStyle=1" vertex="1" parent="1"><mxGeometry x="880" y="398.07" width="120" height="24.23" as="geometry"/></mxCell><mxCell id="77" value="" style="endArrow=none;html=1;rounded=0;exitX=0;exitY=0;exitDx=0;exitDy=135;exitPerimeter=0;" edge="1" parent="1" source="70"><mxGeometry width="50" height="50" relative="1" as="geometry"><mxPoint x="890" y="360" as="sourcePoint"/><mxPoint x="960" y="260" as="targetPoint"/></mxGeometry></mxCell><mxCell id="78" value="Protocol&lt;br&gt;HTTPS + WebSocket" style="text;html=1;align=center;verticalAlign=middle;resizable=0;points=[];autosize=1;strokeColor=none;fillColor=none;" vertex="1" parent="1"><mxGeometry x="680" y="-110" width="130" height="30" as="geometry"/></mxCell><mxCell id="79" value="&lt;span style=&quot;font-weight: 700&quot;&gt;&amp;lt;&amp;lt;service&amp;gt;&amp;gt;&lt;/span&gt;&lt;br style=&quot;font-weight: 700&quot;&gt;&lt;b&gt;Sentry&lt;/b&gt;" style="verticalAlign=top;align=center;shape=cube;size=10;direction=south;fontStyle=0;html=1;boundedLbl=1;spacingLeft=5;" vertex="1" parent="1"><mxGeometry x="400" y="285" width="280" height="180" as="geometry"/></mxCell><mxCell id="80" value="" style="rounded=0;whiteSpace=wrap;html=1;" vertex="1" parent="1"><mxGeometry x="440" y="350" width="210" height="70" as="geometry"/></mxCell><mxCell id="81" value="&amp;lt;&amp;lt;artifact&amp;gt;&amp;gt;&lt;br&gt;Sentry" style="text;html=1;strokeColor=none;fillColor=none;align=center;verticalAlign=middle;whiteSpace=wrap;rounded=0;fontStyle=1" vertex="1" parent="1"><mxGeometry x="510" y="360" width="60" height="30" as="geometry"/></mxCell><mxCell id="82" value="" style="endArrow=none;html=1;rounded=0;exitX=0;exitY=0;exitDx=85;exitDy=0;exitPerimeter=0;entryX=0.382;entryY=0.992;entryDx=0;entryDy=0;entryPerimeter=0;" edge="1" parent="1" target="52"><mxGeometry width="50" height="50" relative="1" as="geometry"><mxPoint x="680" y="370" as="sourcePoint"/><mxPoint x="810" y="-70" as="targetPoint"/></mxGeometry></mxCell><mxCell id="83" value="" style="endArrow=none;html=1;rounded=0;exitX=0;exitY=0;exitDx=180;exitDy=145;exitPerimeter=0;" edge="1" parent="1" source="71"><mxGeometry width="50" height="50" relative="1" as="geometry"><mxPoint x="699.9999999999998" y="135" as="sourcePoint"/><mxPoint x="525" y="280" as="targetPoint"/></mxGeometry></mxCell><mxCell id="84" value="Protocol&lt;br&gt;HTTPS" style="text;html=1;align=center;verticalAlign=middle;resizable=0;points=[];autosize=1;strokeColor=none;fillColor=none;" vertex="1" parent="1"><mxGeometry x="450" y="140" width="60" height="30" as="geometry"/></mxCell><mxCell id="85" value="Protocol&lt;br&gt;HTTPS" style="text;html=1;align=center;verticalAlign=middle;resizable=0;points=[];autosize=1;strokeColor=none;fillColor=none;" vertex="1" parent="1"><mxGeometry x="680" y="130" width="60" height="30" as="geometry"/></mxCell><mxCell id="86" value="Protocol&lt;br&gt;HTTPS" style="text;html=1;align=center;verticalAlign=middle;resizable=0;points=[];autosize=1;strokeColor=none;fillColor=none;" vertex="1" parent="1"><mxGeometry x="900" y="285" width="60" height="30" as="geometry"/></mxCell></root></mxGraphModel></diagram></mxfile>